# xmcd
#
# Track frame offsets:
#	182
#	11012
#	22680
#	34367
#	46955
#	58075
#	69330
#	80637
#	92575
#	104460
#	113810
#	125502
#	137050
#	147190
#	157887
#	168810
#	179187
#	189332
#	200935
#	212012
#
# Disc length: 2967 seconds
#
# Revision: 4
# Processed by: cddbd v1.5PL3 Copyright (c) Steve Scherf et al.
# Submitted via: audiograbber 1.81.02
#
DISCID=1a0b9514
DTITLE=Patsy Cline - Legends
DYEAR=1900
DGENRE=Country OLDIES
TTITLE0=I Don't Wanna
TTITLE1=Let The Teardrops Fall
TTITLE2=I've Loved And Lost Again
TTITLE3=Fingertips
TTITLE4=I Can't Forget
TTITLE5=Just Out Of Reach (Of My Two Arms)
TTITLE6=Hungry For Love
TTITLE7=If I Could Only Stay Asleep
TTITLE8=Today, Tomorrow And Forever
TTITLE9=I Love You Honey
TTITLE10=Never No More
TTITLE11=Walking After Midnight
TTITLE12=Pick Me Up On Your Way Down
TTITLE13=Honky Tonk Merry-Go-Round
TTITLE14=I Cried All The Way To The Altar
TTITLE15=Too Many Secrets
TTITLE16=Three Cigarettes (In An Ashtray)
TTITLE17=In Care Of The Blues
TTITLE18=Stop The World (And Let Me Off)
TTITLE19=I Can See An Angel
EXTD=PATSY CLINE\nSince the Nineteen-Fifties many of country music´s leading en
EXTD=tertainers have, apart from enjoying success with their traditional countr
EXTD=y audience, attained huge mainstream pop success.Notable examples include 
EXTD=such fernale country artists an Tammy Wynett, Crystal Gayle, Dolly Pardon 
EXTD=and Emmylou Harris. The late Patsy Cline was one of the first fernale coun
EXTD=try stars to attract the attention of the pop audience,and recent years he
EXTD=ve seen increasing recognition of both the unique nature of her talent and
EXTD=the importance of her influence on fellow-artists.\nPatsy Cline, real nam
EXTD=e Viginia Patterson Hensley, was born in Winchester, Virginia on September
EXTD=8, 1932
EXTT0=
EXTT1=
EXTT2=
EXTT3=
EXTT4=
EXTT5=
EXTT6=
EXTT7=
EXTT8=
EXTT9=
EXTT10=
EXTT11=
EXTT12=
EXTT13=
EXTT14=
EXTT15=
EXTT16=
EXTT17=
EXTT18=
EXTT19=
PLAYORDER=
